<?xml version="1.0" encoding="UTF-8" standalone="no"?>
<!-- Created with Inkscape (http://www.inkscape.org/) -->

<svg
   xmlns:dc="http://purl.org/dc/elements/1.1/"
   xmlns:cc="http://creativecommons.org/ns#"
   xmlns:rdf="http://www.w3.org/1999/02/22-rdf-syntax-ns#"
   xmlns:svg="http://www.w3.org/2000/svg"
   xmlns="http://www.w3.org/2000/svg"
   xmlns:xlink="http://www.w3.org/1999/xlink"
   xmlns:sodipodi="http://sodipodi.sourceforge.net/DTD/sodipodi-0.dtd"
   xmlns:inkscape="http://www.inkscape.org/namespaces/inkscape"
   height="48"
   id="svg11300"
   inkscape:export-filename="/home/jimmac/Desktop/wi-fi.png"
   inkscape:export-xdpi="90.000000"
   inkscape:export-ydpi="90.000000"
   inkscape:output_extension="org.inkscape.output.svg.inkscape"
   inkscape:version="0.91 r13725"
   sodipodi:docname="clear.svg"
   sodipodi:version="0.32"
   style="display:inline;enable-background:new"
   version="1.0"
   width="48">
  <title
     id="title8836">Optical Drive</title>
  <metadata
     id="metadata154">
    <rdf:RDF>
      <cc:Work
         rdf:about="">
        <dc:format>image/svg+xml</dc:format>
        <dc:type
           rdf:resource="http://purl.org/dc/dcmitype/StillImage" />
        <dc:title>Optical Drive</dc:title>
        <dc:creator>
          <cc:Agent>
            <dc:title />
          </cc:Agent>
        </dc:creator>
        <dc:contributor>
          <cc:Agent>
            <dc:title />
          </cc:Agent>
        </dc:contributor>
        <dc:source />
        <cc:license
           rdf:resource="" />
        <dc:subject>
          <rdf:Bag />
        </dc:subject>
      </cc:Work>
    </rdf:RDF>
  </metadata>
  <sodipodi:namedview
     bordercolor="#666666"
     borderopacity="0.25490196"
     fill="#f57900"
     gridtolerance="12"
     guidetolerance="13"
     height="300px"
     id="base"
     inkscape:current-layer="layer2"
     inkscape:cx="151.0525"
     inkscape:cy="308.19479"
     inkscape:document-units="px"
     inkscape:grid-bbox="true"
     inkscape:guide-bbox="true"
     inkscape:pageopacity="0.0"
     inkscape:pageshadow="2"
     inkscape:showpageshadow="false"
     inkscape:snap-bbox="true"
     inkscape:snap-nodes="true"
     inkscape:window-height="1134"
     inkscape:window-width="1307"
     inkscape:window-x="35"
     inkscape:window-y="42"
     inkscape:zoom="1"
     objecttolerance="7"
     pagecolor="#ffffff"
     showgrid="false"
     showguides="true"
     stroke="#ef2929"
     width="400px"
     inkscape:window-maximized="1">
    <inkscape:grid
       empspacing="2"
       enabled="true"
       id="grid5883"
       spacingx="0.5px"
       spacingy="0.5px"
       type="xygrid"
       visible="true" />
  </sodipodi:namedview>
  <defs
     id="defs3">
    <linearGradient
       id="linearGradient6019"
       inkscape:collect="always">
      <stop
         id="stop6021"
         offset="0"
         style="stop-color:#000000;stop-opacity:1;" />
      <stop
         id="stop6023"
         offset="1"
         style="stop-color:#000000;stop-opacity:0;" />
    </linearGradient>
    <linearGradient
       id="linearGradient5999"
       inkscape:collect="always">
      <stop
         id="stop6001"
         offset="0"
         style="stop-color:#c4a000;stop-opacity:1;" />
      <stop
         id="stop6003"
         offset="1"
         style="stop-color:#c4a000;stop-opacity:0;" />
    </linearGradient>
    <linearGradient
       id="linearGradient5987"
       inkscape:collect="always">
      <stop
         id="stop5989"
         offset="0"
         style="stop-color:#d7c20f;stop-opacity:1" />
      <stop
         id="stop5991"
         offset="1"
         style="stop-color:#b6970d;stop-opacity:1" />
    </linearGradient>
    <linearGradient
       id="linearGradient5981"
       inkscape:collect="always">
      <stop
         id="stop5983"
         offset="0"
         style="stop-color:#ffffff;stop-opacity:1;" />
      <stop
         id="stop5985"
         offset="1"
         style="stop-color:#ffffff;stop-opacity:0.69411765" />
    </linearGradient>
    <linearGradient
       id="linearGradient5996"
       inkscape:collect="always">
      <stop
         id="stop5998"
         offset="0"
         style="stop-color:#8f5902;stop-opacity:1;" />
      <stop
         id="stop6000"
         offset="1"
         style="stop-color:#73521e;stop-opacity:1" />
    </linearGradient>
    <linearGradient
       id="linearGradient5984"
       inkscape:collect="always">
      <stop
         id="stop5986"
         offset="0"
         style="stop-color:#ffffff;stop-opacity:1;" />
      <stop
         id="stop5988"
         offset="1"
         style="stop-color:#ffffff;stop-opacity:0.13438736" />
    </linearGradient>
    <linearGradient
       id="linearGradient5974"
       inkscape:collect="always">
      <stop
         id="stop5976"
         offset="0"
         style="stop-color:#ad7fa8;stop-opacity:1;" />
      <stop
         id="stop5978"
         offset="1"
         style="stop-color:#dac6d8;stop-opacity:1" />
    </linearGradient>
    <linearGradient
       id="linearGradient5966"
       inkscape:collect="always">
      <stop
         id="stop5968"
         offset="0"
         style="stop-color:#fdef72;stop-opacity:1" />
      <stop
         id="stop5970"
         offset="1"
         style="stop-color:#e2cb0b;stop-opacity:1" />
    </linearGradient>
    <linearGradient
       id="linearGradient5958"
       inkscape:collect="always">
      <stop
         id="stop5960"
         offset="0"
         style="stop-color:#c17d11;stop-opacity:1;" />
      <stop
         id="stop5962"
         offset="1"
         style="stop-color:#e9b96e;stop-opacity:1" />
    </linearGradient>
    <linearGradient
       gradientUnits="userSpaceOnUse"
       id="linearGradient5994"
       inkscape:collect="always"
       x1="28"
       x2="33.447109"
       xlink:href="#linearGradient5984"
       y1="8"
       y2="16.685888" />
    <linearGradient
       gradientTransform="translate(-2,0)"
       gradientUnits="userSpaceOnUse"
       id="linearGradient6002"
       inkscape:collect="always"
       x1="30.324829"
       x2="34"
       xlink:href="#linearGradient5996"
       y1="9.2407961"
       y2="18" />
    <radialGradient
       inkscape:collect="always"
       xlink:href="#linearGradient6019"
       id="radialGradient4118"
       gradientUnits="userSpaceOnUse"
       gradientTransform="matrix(1,0,0,0.45,0,37.95)"
       cx="38"
       cy="69"
       fx="28.603323"
       fy="69"
       r="20" />
    <linearGradient
       inkscape:collect="always"
       xlink:href="#linearGradient5958"
       id="linearGradient4120"
       gradientUnits="userSpaceOnUse"
       gradientTransform="translate(-2,0)"
       x1="28"
       y1="16"
       x2="26"
       y2="8" />
    <linearGradient
       inkscape:collect="always"
       xlink:href="#linearGradient5966"
       id="linearGradient4122"
       gradientUnits="userSpaceOnUse"
       gradientTransform="translate(-2,0)"
       x1="20.933708"
       y1="25.060659"
       x2="30.208115"
       y2="30.742676" />
    <linearGradient
       inkscape:collect="always"
       xlink:href="#linearGradient5987"
       id="linearGradient4124"
       gradientUnits="userSpaceOnUse"
       gradientTransform="translate(-2,0)"
       x1="17.032078"
       y1="27.446827"
       x2="29.494455"
       y2="37.845814" />
    <linearGradient
       inkscape:collect="always"
       xlink:href="#linearGradient5981"
       id="linearGradient4126"
       gradientUnits="userSpaceOnUse"
       gradientTransform="translate(-2,0)"
       x1="22.319767"
       y1="41.955986"
       x2="18.985712"
       y2="37.029255" />
    <linearGradient
       inkscape:collect="always"
       xlink:href="#linearGradient5999"
       id="linearGradient4128"
       gradientUnits="userSpaceOnUse"
       gradientTransform="translate(-2,0)"
       x1="27.354809"
       y1="36.218422"
       x2="23.489431"
       y2="34.728424" />
    <linearGradient
       inkscape:collect="always"
       xlink:href="#linearGradient5974"
       id="linearGradient4130"
       gradientUnits="userSpaceOnUse"
       gradientTransform="matrix(0.9768193,0,0,1,-1.3746633,0)"
       x1="27.651777"
       y1="23.145937"
       x2="21.59099"
       y2="20.618719" />
  </defs>
  <g
     id="layer6"
     inkscape:groupmode="layer"
     inkscape:label="baseplate"
     style="display:none"
     transform="translate(0,-252)">
    <rect
       height="48"
       id="rect6284"
       inkscape:label="48x48"
       style="display:inline;overflow:visible;visibility:visible;fill:#eeeeec;fill-opacity:1;fill-rule:nonzero;stroke:none;stroke-width:2;marker:none;enable-background:accumulate"
       width="48"
       x="296"
       y="50" />
    <rect
       height="32"
       id="rect6592"
       inkscape:label="32x32"
       style="display:inline;overflow:visible;visibility:visible;fill:#eeeeec;fill-opacity:1;fill-rule:nonzero;stroke:none;stroke-width:2;marker:none;enable-background:accumulate"
       width="32"
       x="303"
       y="126" />
    <rect
       height="22"
       id="rect6749"
       inkscape:label="22x22"
       style="display:inline;overflow:visible;visibility:visible;fill:#eeeeec;fill-opacity:1;fill-rule:nonzero;stroke:none;stroke-width:2;marker:none;enable-background:accumulate"
       width="22"
       x="303"
       y="177" />
    <rect
       height="16"
       id="rect6833"
       inkscape:label="16x16"
       style="display:inline;overflow:visible;visibility:visible;fill:#eeeeec;fill-opacity:1;fill-rule:nonzero;stroke:none;stroke-width:2;marker:none;enable-background:accumulate"
       width="16"
       x="303"
       y="219" />
    <text
       id="context"
       inkscape:label="context"
       style="font-style:normal;font-weight:normal;font-size:18.30070686px;font-family:'Bitstream Vera Sans';display:inline;fill:#000000;fill-opacity:1;stroke:none;enable-background:new"
       x="20.970737"
       xml:space="preserve"
       y="21.513618"><tspan
         id="tspan2716"
         sodipodi:role="line"
         x="20.970737"
         y="21.513618">actions</tspan></text>
    <text
       id="icon-name"
       inkscape:label="icon-name"
       sodipodi:linespacing="125%"
       style="font-style:normal;font-variant:normal;font-weight:bold;font-stretch:normal;font-size:18.30070686px;line-height:125%;font-family:'Droid Sans';-inkscape-font-specification:'Droid Sans Bold';text-align:start;writing-mode:lr-tb;text-anchor:start;display:inline;fill:#000000;fill-opacity:1;stroke:none;enable-background:new"
       x="191.97073"
       xml:space="preserve"
       y="21.513618"><tspan
         id="tspan3023"
         sodipodi:role="line"
         x="191.97073"
         y="21.513618">edit-clear-all</tspan></text>
  </g>
  <g
     id="layer2"
     inkscape:groupmode="layer"
     inkscape:label="small sizes"
     style="display:inline"
     transform="translate(0,-252)">
    <g
       id="g48"
       style="display:inline;enable-background:new"
       transform="translate(-1e-6,251.51615)">
      <ellipse
         id="path6017"
         style="opacity:0.25;fill:url(#radialGradient4118);fill-opacity:1;stroke:none;stroke-width:0.99999994;stroke-linecap:round;stroke-linejoin:round;stroke-miterlimit:20;stroke-dasharray:none;stroke-opacity:1"
         transform="matrix(1,0,0,0.6666668,-13.999999,-5.0000087)"
         cx="38"
         cy="69"
         rx="20"
         ry="9" />
      <path
         d="m 34.59375,2.46875 c -8.203217,0.1056503 -9.3968,16.247526 -11.75,19.15625 l 4,1.4375 C 29.475623,18.689953 42.599746,4.1545034 35.40625,2.5 35.12676,2.4690309 34.85837,2.4653419 34.59375,2.46875 Z m -1.03125,2.0625 c 0.193563,-0.018739 0.367986,0.00572 0.53125,0.09375 0.653056,0.3521226 0.723655,1.4948771 0.15625,2.53125 -0.567405,1.0363729 -1.565696,1.6021225 -2.21875,1.25 C 31.378197,8.0541272 31.307595,6.9113729 31.875,5.875 32.300554,5.0977202 32.981812,4.5874659 33.5625,4.53125 Z"
         id="path5371"
         style="fill:url(#linearGradient4120);fill-opacity:1;fill-rule:evenodd;stroke:url(#linearGradient6002);stroke-width:1px;stroke-linecap:butt;stroke-linejoin:miter;stroke-opacity:1"
         inkscape:connector-curvature="0" />
      <path
         d="m 36.607422,3.4726562 c -1.721619,0.022173 -3.025503,0.8402493 -4.205078,2.265625 -1.179576,1.4253758 -2.144428,3.4514011 -2.933594,5.6035158 -0.789166,2.152114 -1.410368,4.422551 -1.986328,6.363281 -0.399235,1.345245 -0.776838,2.424818 -1.22461,3.361328 l 2.207032,0.792969 c 1.619888,-2.496279 4.999189,-6.593456 7.490234,-10.625 1.325839,-2.1457566 2.309091,-4.2092911 2.525391,-5.59375 0.10815,-0.6922294 0.02944,-1.1651169 -0.140625,-1.4609375 -0.166113,-0.2889417 -0.456736,-0.5224937 -1.13086,-0.6855469 -0.192432,-0.016958 -0.385855,-0.024263 -0.601562,-0.021484 z"
         id="path5992"
         inkscape:original="M 36.59375 2.46875 C 28.390533 2.5744003 27.19695 18.716276 24.84375 21.625 L 28.84375 23.0625 C 31.475623 18.689953 44.599746 4.1545034 37.40625 2.5 C 37.12676 2.4690309 36.85837 2.4653419 36.59375 2.46875 z "
         inkscape:radius="-1.0049498"
         sodipodi:type="inkscape:offset"
         style="opacity:0.26666667;fill:none;fill-opacity:1;fill-rule:evenodd;stroke:url(#linearGradient5994);stroke-width:1px;stroke-linecap:butt;stroke-linejoin:miter;stroke-opacity:1"
         transform="translate(-2,0)" />
      <path
         d="m 20.5,16.5 c 0.709506,2.003007 -0.541388,3.737831 -1,5 C 14.308433,23.045674 10.713199,31.203726 5.3674175,35.453585 6.0352055,36.150983 6.819644,36.897763 7.5,37.5 l 4.0625,-3.53125 -3.067556,4.524649 C 10.704181,40.284382 13,41.5 14.5,42 L 17.25,38.34375 15.5,42.5 c 1.451994,0.588882 4.985286,1.482025 7,1.5 l 2.00389,-3.402497 -0.513169,3.464997 c 0.829563,0.158359 2.438165,0.374216 3.509279,0.40625 3.362186,-5.5 4,-14.46875 2,-18.46875 -0.5,-2 1.5,-4.5 3,-5.5 -2.5,-2 -8.205589,-4.303726 -12,-4 z"
         id="path5367"
         sodipodi:nodetypes="cccccccccccccccc"
         style="fill:url(#linearGradient4122);fill-opacity:1;fill-rule:evenodd;stroke:url(#linearGradient4124);stroke-width:0.99999994;stroke-linecap:butt;stroke-linejoin:miter;stroke-miterlimit:20;stroke-dasharray:none;stroke-opacity:1"
         inkscape:connector-curvature="0" />
      <path
         d="M 9,38.5 C 13.816495,33.489105 13.465023,31.296074 19.116117,26.972272 16.133675,31.800703 15.650278,34.31233 12,40.5 l -3,-2 z"
         id="path5975"
         sodipodi:nodetypes="cccc"
         style="opacity:0.26666667;fill:#c4a000;fill-rule:evenodd;stroke:none;stroke-width:1px;stroke-linecap:butt;stroke-linejoin:miter;stroke-opacity:1"
         inkscape:connector-curvature="0" />
      <path
         d="m 16.149808,42.202452 4.346027,-9.840147 c 1.664513,-2.983727 2.859672,-5.970052 4.528973,-8.347353 -1.601954,5.418037 -4.89069,12.121793 -7.53125,18.625 l -1.34375,-0.4375 z"
         id="path5979"
         sodipodi:nodetypes="ccccc"
         style="opacity:0.41568627;fill:#c4a000;fill-rule:evenodd;stroke:none;stroke-width:1px;stroke-linecap:butt;stroke-linejoin:miter;stroke-opacity:1"
         inkscape:connector-curvature="0" />
      <path
         d="m 21.625,17.5 c 0.09674,1.915146 -0.922943,3.529645 -1.21875,4.34375 -0.104103,0.284709 -0.33533,0.504374 -0.625,0.59375 -5.453398,2.234644 -7.629803,8.574038 -12.9946384,13.086167 0.2016424,0.199854 0.4920308,0.417304 0.6945296,0.608231 L 16.5,28.5 9.923385,38.310313 c 1.270033,1.027613 2.722201,1.884544 4.226656,2.489165 L 21.144394,31.5 16.869501,41.911612 C 18.46507,42.437269 19.967804,42.738908 21.81451,43 l 4.61873,-7.6875 -1.37074,7.906817 1.875,0.225995 c 1.433213,-2.535494 2.132382,-5.66653 2.53125,-8.789062 0.423945,-3.318846 -0.005,-6.541178 -0.84375,-8.21875 -0.02716,-0.06021 -0.0481,-0.123035 -0.0625,-0.1875 -0.346858,-1.387431 0.169142,-2.745627 0.875,-3.875 0.426893,-0.683029 0.930372,-1.290779 1.464959,-1.801777 C 29.730977,19.790532 28.315762,19.113157 26.53125,18.46875 24.769173,17.832444 23.033252,17.518725 21.625,17.5 Z"
         id="path6014"
         sodipodi:nodetypes="csccccccccccccsssscsc"
         style="opacity:0.47843137;fill:none;fill-opacity:1;fill-rule:evenodd;stroke:url(#linearGradient4126);stroke-width:0.99999994px;stroke-linecap:butt;stroke-linejoin:miter;stroke-opacity:1"
         inkscape:connector-curvature="0" />
      <path
         d="m 18.96875,43 c 2.177566,-5.751871 6.395916,-10.068943 8.016913,-15.935412 0.05154,3.662073 0.24972,10.203726 -1.891913,16.716662 -0.319766,0.0018 -0.173927,-0.110809 -0.46988,-0.118553 l 0.800792,-5.724517 -3.281486,5.554384 C 19.952368,43.33624 20.848565,43.525163 18.96875,43 Z"
         id="path5977"
         sodipodi:nodetypes="ccccccc"
         style="opacity:0.24705882;fill:url(#linearGradient4128);fill-opacity:1;fill-rule:evenodd;stroke:none;stroke-width:1px;stroke-linecap:butt;stroke-linejoin:miter;stroke-opacity:1"
         inkscape:connector-curvature="0" />
      <path
         d="m 21.003067,22.610447 c -1.251995,0.616379 -2.062209,1.527278 -2.983106,2.364388 1.226487,-0.708643 2.378986,-1.448994 3.999573,-1.988738 l -1.016467,-0.37565 z"
         id="path5995"
         sodipodi:nodetypes="cccc"
         style="opacity:0.48235294;fill:#c4a000;fill-rule:evenodd;stroke:none;stroke-width:1px;stroke-linecap:butt;stroke-linejoin:miter;stroke-opacity:1"
         inkscape:connector-curvature="0" />
      <path
         d="m 23.008698,23.061049 -1.016465,1.988738 2.980713,-1.58825 -1.964248,-0.400488 z"
         id="path5997"
         sodipodi:nodetypes="cccc"
         style="opacity:0.48235294;fill:#c4a000;fill-rule:evenodd;stroke:none;stroke-width:1px;stroke-linecap:butt;stroke-linejoin:miter;stroke-opacity:1"
         inkscape:connector-curvature="0" />
      <path
         d="m 22.939805,17.961399 -0.895193,1.707022 1.565727,0.502084 -0.670534,-2.209106 z"
         id="path6007"
         sodipodi:nodetypes="cccc"
         style="opacity:0.48235294;fill:#c4a000;fill-rule:evenodd;stroke:none;stroke-width:1px;stroke-linecap:butt;stroke-linejoin:miter;stroke-opacity:1"
         inkscape:connector-curvature="0" />
      <path
         d="m 29.923254,19.88537 -2.460248,1.835447 1.565727,0.502084 0.894521,-2.337531 z"
         id="path6009"
         sodipodi:nodetypes="cccc"
         style="opacity:0.48235294;fill:#c4a000;fill-rule:evenodd;stroke:none;stroke-width:1px;stroke-linecap:butt;stroke-linejoin:miter;stroke-opacity:1"
         inkscape:connector-curvature="0" />
      <path
         d="m 26.012925,17.938566 -1.513911,2.524614 1.565727,0.502084 -0.05182,-3.026698 z"
         id="path6011"
         sodipodi:nodetypes="cccc"
         style="opacity:0.48235294;fill:#c4a000;fill-rule:evenodd;stroke:none;stroke-width:1px;stroke-linecap:butt;stroke-linejoin:miter;stroke-opacity:1"
         inkscape:connector-curvature="0" />
      <path
         d="m 18.967726,22.024699 c -0.56678,-2.965484 9.332835,2.152903 11.036822,2.994369 -0.0065,1.079068 0,2 -0.976819,2 -2.567538,-1.39298 -6.535255,-3.605143 -10.060003,-4.994369 z"
         id="path6013"
         sodipodi:nodetypes="cccc"
         style="opacity:0.2;fill:#000000;fill-opacity:1;fill-rule:evenodd;stroke:none;stroke-width:1px;stroke-linecap:butt;stroke-linejoin:round;stroke-opacity:1"
         inkscape:connector-curvature="0" />
      <path
         d="m 18.650133,21.5 c -0.48841,-1 0,-2 0.97682,-2 3.99144,0.975417 7.324875,2.206232 10.745012,4 0.48841,1 0,2 -0.976819,2 -3.533943,-1.86442 -6.866711,-3.074813 -10.745013,-4 z"
         id="path5373"
         sodipodi:nodetypes="ccccc"
         style="fill:url(#linearGradient4130);fill-opacity:1;fill-rule:evenodd;stroke:#5c3566;stroke-width:1px;stroke-linecap:butt;stroke-linejoin:round;stroke-opacity:1"
         inkscape:connector-curvature="0" />
    </g>
  </g>
  <g
     id="layer4"
     inkscape:groupmode="layer"
     inkscape:label="hires"
     style="display:inline"
     transform="translate(0,-252)" />
</svg>
